<svg width="72" height="38" viewBox="0 0 72 38" fill="none" xmlns="http://www.w3.org/2000/svg">
<rect width="72" height="38" rx="6" fill="#E6E5E5"/>
<path fill-rule="evenodd" clip-rule="evenodd" d="M9.53125 19C9.53125 18.6376 9.82506 18.3438 10.1875 18.3438H19.8125C20.1749 18.3438 20.4688 18.6376 20.4688 19C20.4688 19.3624 20.1749 19.6562 19.8125 19.6562H10.1875C9.82506 19.6562 9.53125 19.3624 9.53125 19Z" fill="#8047F8"/>
<path d="M37.1953 13.0625V24.5H35.75V14.8672L32.8359 15.9297V14.625L36.9688 13.0625H37.1953Z" fill="#272221"/>
<path fill-rule="evenodd" clip-rule="evenodd" d="M51.5312 19C51.5312 18.6376 51.8251 18.3438 52.1875 18.3438H61.8125C62.1749 18.3438 62.4688 18.6376 62.4688 19C62.4688 19.3624 62.1749 19.6562 61.8125 19.6562H52.1875C51.8251 19.6562 51.5312 19.3624 51.5312 19Z" fill="#8047F8"/>
<path fill-rule="evenodd" clip-rule="evenodd" d="M57 13.5312C57.3624 13.5312 57.6562 13.8251 57.6562 14.1875V23.8125C57.6562 24.1749 57.3624 24.4688 57 24.4688C56.6376 24.4688 56.3438 24.1749 56.3438 23.8125V14.1875C56.3438 13.8251 56.6376 13.5312 57 13.5312Z" fill="#8047F8"/>
</svg>
